<svg id="visual" viewBox="0 0 1920 1080" width="1920" height="1080" xmlns="http://www.w3.org/2000/svg" xmlns:xlink="http://www.w3.org/1999/xlink" version="1.1"><rect x="0" y="0" width="1920" height="1080" fill="#d7d7d7"></rect><path d="M0 377L45.7 410.5C91.3 444 182.7 511 274.2 519.5C365.7 528 457.3 478 548.8 463.7C640.3 449.3 731.7 470.7 823 485.8C914.3 501 1005.7 510 1097 486.8C1188.3 463.7 1279.7 408.3 1371.2 409.7C1462.7 411 1554.3 469 1645.8 470.7C1737.3 472.3 1828.7 417.7 1874.3 390.3L1920 363L1920 1081L1874.3 1081C1828.7 1081 1737.3 1081 1645.8 1081C1554.3 1081 1462.7 1081 1371.2 1081C1279.7 1081 1188.3 1081 1097 1081C1005.7 1081 914.3 1081 823 1081C731.7 1081 640.3 1081 548.8 1081C457.3 1081 365.7 1081 274.2 1081C182.7 1081 91.3 1081 45.7 1081L0 1081Z" fill="#336c95"></path><path d="M0 537L45.7 536C91.3 535 182.7 533 274.2 533C365.7 533 457.3 535 548.8 558.8C640.3 582.7 731.7 628.3 823 630.7C914.3 633 1005.7 592 1097 600C1188.3 608 1279.7 665 1371.2 678.5C1462.7 692 1554.3 662 1645.8 662.5C1737.3 663 1828.7 694 1874.3 709.5L1920 725L1920 1081L1874.3 1081C1828.7 1081 1737.3 1081 1645.8 1081C1554.3 1081 1462.7 1081 1371.2 1081C1279.7 1081 1188.3 1081 1097 1081C1005.7 1081 914.3 1081 823 1081C731.7 1081 640.3 1081 548.8 1081C457.3 1081 365.7 1081 274.2 1081C182.7 1081 91.3 1081 45.7 1081L0 1081Z" fill="#264d74"></path><path d="M0 786L45.7 778.8C91.3 771.7 182.7 757.3 274.2 754.2C365.7 751 457.3 759 548.8 751.5C640.3 744 731.7 721 823 726.8C914.3 732.7 1005.7 767.3 1097 763.2C1188.3 759 1279.7 716 1371.2 717.7C1462.7 719.3 1554.3 765.7 1645.8 790.3C1737.3 815 1828.7 818 1874.3 819.5L1920 821L1920 1081L1874.3 1081C1828.7 1081 1737.3 1081 1645.8 1081C1554.3 1081 1462.7 1081 1371.2 1081C1279.7 1081 1188.3 1081 1097 1081C1005.7 1081 914.3 1081 823 1081C731.7 1081 640.3 1081 548.8 1081C457.3 1081 365.7 1081 274.2 1081C182.7 1081 91.3 1081 45.7 1081L0 1081Z" fill="#193053"></path><path d="M0 853L45.7 875.7C91.3 898.3 182.7 943.7 274.2 947C365.7 950.3 457.3 911.7 548.8 893.7C640.3 875.7 731.7 878.3 823 891.7C914.3 905 1005.7 929 1097 926.5C1188.3 924 1279.7 895 1371.2 883.7C1462.7 872.3 1554.3 878.7 1645.8 876.2C1737.3 873.7 1828.7 862.3 1874.3 856.7L1920 851L1920 1081L1874.3 1081C1828.7 1081 1737.3 1081 1645.8 1081C1554.3 1081 1462.7 1081 1371.2 1081C1279.7 1081 1188.3 1081 1097 1081C1005.7 1081 914.3 1081 823 1081C731.7 1081 640.3 1081 548.8 1081C457.3 1081 365.7 1081 274.2 1081C182.7 1081 91.3 1081 45.7 1081L0 1081Z" fill="#0b1633"></path></svg>